<?xml version="1.0" encoding="utf-8" ?>
<svg baseProfile="tiny" height="100%" version="1.2" width="100%" xmlns="http://www.w3.org/2000/svg" xmlns:ev="http://www.w3.org/2001/xml-events" xmlns:xlink="http://www.w3.org/1999/xlink"><defs /><g fill="white" id="zodiac" stroke="black" stroke-width="2"><circle cx="0" cy="0" r="320" /><circle cx="0" cy="0" r="300" /><circle cx="0" cy="0" r="200" /><line x1="200.0" x2="320.0" y1="0.0" y2="0.0" /><line x1="173.2051" x2="277.1281" y1="100.0" y2="160.0" /><line x1="100.0" x2="160.0" y1="173.2051" y2="277.1281" /><line x1="0.0" x2="0.0" y1="200.0" y2="320.0" /><line x1="-100.0" x2="-160.0" y1="173.2051" y2="277.1281" /><line x1="-173.2051" x2="-277.1281" y1="100.0" y2="160.0" /><line x1="-200.0" x2="-320.0" y1="0.0" y2="0.0" /><line x1="-173.2051" x2="-277.1281" y1="-100.0" y2="-160.0" /><line x1="-100.0" x2="-160.0" y1="-173.2051" y2="-277.1281" /><line x1="-0.0" x2="-0.0" y1="-200.0" y2="-320.0" /><line x1="100.0" x2="160.0" y1="-173.2051" y2="-277.1281" /><line x1="173.2051" x2="277.1281" y1="-100.0" y2="-160.0" /><line x1="300.0" x2="320.0" y1="0.0" y2="0.0" /><line x1="295.4423" x2="315.1385" y1="52.0945" y2="55.5674" /><line x1="281.9078" x2="300.7016" y1="102.606" y2="109.4464" /><line x1="259.8076" x2="277.1281" y1="150.0" y2="160.0" /><line x1="229.8133" x2="245.1342" y1="192.8363" y2="205.692" /><line x1="192.8363" x2="205.692" y1="229.8133" y2="245.1342" /><line x1="150.0" x2="160.0" y1="259.8076" y2="277.1281" /><line x1="102.606" x2="109.4464" y1="281.9078" y2="300.7016" /><line x1="52.0945" x2="55.5674" y1="295.4423" y2="315.1385" /><line x1="0.0" x2="0.0" y1="300.0" y2="320.0" /><line x1="-52.0945" x2="-55.5674" y1="295.4423" y2="315.1385" /><line x1="-102.606" x2="-109.4464" y1="281.9078" y2="300.7016" /><line x1="-150.0" x2="-160.0" y1="259.8076" y2="277.1281" /><line x1="-192.8363" x2="-205.692" y1="229.8133" y2="245.1342" /><line x1="-229.8133" x2="-245.1342" y1="192.8363" y2="205.692" /><line x1="-259.8076" x2="-277.1281" y1="150.0" y2="160.0" /><line x1="-281.9078" x2="-300.7016" y1="102.606" y2="109.4464" /><line x1="-295.4423" x2="-315.1385" y1="52.0945" y2="55.5674" /><line x1="-300.0" x2="-320.0" y1="0.0" y2="0.0" /><line x1="-295.4423" x2="-315.1385" y1="-52.0945" y2="-55.5674" /><line x1="-281.9078" x2="-300.7016" y1="-102.606" y2="-109.4464" /><line x1="-259.8076" x2="-277.1281" y1="-150.0" y2="-160.0" /><line x1="-229.8133" x2="-245.1342" y1="-192.8363" y2="-205.692" /><line x1="-192.8363" x2="-205.692" y1="-229.8133" y2="-245.1342" /><line x1="-150.0" x2="-160.0" y1="-259.8076" y2="-277.1281" /><line x1="-102.606" x2="-109.4464" y1="-281.9078" y2="-300.7016" /><line x1="-52.0945" x2="-55.5674" y1="-295.4423" y2="-315.1385" /><line x1="-0.0" x2="-0.0" y1="-300.0" y2="-320.0" /><line x1="52.0945" x2="55.5674" y1="-295.4423" y2="-315.1385" /><line x1="102.606" x2="109.4464" y1="-281.9078" y2="-300.7016" /><line x1="150.0" x2="160.0" y1="-259.8076" y2="-277.1281" /><line x1="192.8363" x2="205.692" y1="-229.8133" y2="-245.1342" /><line x1="229.8133" x2="245.1342" y1="-192.8363" y2="-205.692" /><line x1="259.8076" x2="277.1281" y1="-150.0" y2="-160.0" /><line x1="281.9078" x2="300.7016" y1="-102.606" y2="-109.4464" /><line x1="295.4423" x2="315.1385" y1="-52.0945" y2="-55.5674" /><line x1="300.0" x2="310.0" y1="0.0" y2="0.0" /><line x1="299.8172" x2="309.8112" y1="10.4698" y2="10.8188" /><line x1="299.2692" x2="309.2449" y1="20.9269" y2="21.6245" /><line x1="298.3566" x2="308.3018" y1="31.3585" y2="32.4038" /><line x1="297.0804" x2="306.9831" y1="41.7519" y2="43.1437" /><line x1="295.4423" x2="305.2904" y1="52.0945" y2="53.8309" /><line x1="293.4443" x2="303.2258" y1="62.3735" y2="64.4526" /><line x1="291.0887" x2="300.7917" y1="72.5766" y2="74.9958" /><line x1="288.3785" x2="297.9911" y1="82.6912" y2="85.4476" /><line x1="285.317" x2="294.8275" y1="92.7051" y2="95.7953" /><line x1="281.9078" x2="291.3047" y1="102.606" y2="106.0262" /><line x1="278.1552" x2="287.427" y1="112.382" y2="116.128" /><line x1="274.0636" x2="283.1991" y1="122.021" y2="126.0884" /><line x1="269.6382" x2="278.6262" y1="131.5113" y2="135.8951" /><line x1="264.8843" x2="273.7138" y1="140.8415" y2="145.5362" /><line x1="259.8076" x2="268.4679" y1="150.0" y2="155.0" /><line x1="254.4144" x2="262.8949" y1="158.9758" y2="164.275" /><line x1="248.7113" x2="257.0016" y1="167.7579" y2="173.3498" /><line x1="242.7051" x2="250.7953" y1="176.3356" y2="182.2134" /><line x1="236.4032" x2="244.2833" y1="184.6984" y2="190.8551" /><line x1="229.8133" x2="237.4738" y1="192.8363" y2="199.2642" /><line x1="222.9434" x2="230.3749" y1="200.7392" y2="207.4305" /><line x1="215.8019" x2="222.9953" y1="208.3975" y2="215.3441" /><line x1="208.3975" x2="215.3441" y1="215.8019" y2="222.9953" /><line x1="200.7392" x2="207.4305" y1="222.9434" y2="230.3749" /><line x1="192.8363" x2="199.2642" y1="229.8133" y2="237.4738" /><line x1="184.6984" x2="190.8551" y1="236.4032" y2="244.2833" /><line x1="176.3356" x2="182.2134" y1="242.7051" y2="250.7953" /><line x1="167.7579" x2="173.3498" y1="248.7113" y2="257.0016" /><line x1="158.9758" x2="164.275" y1="254.4144" y2="262.8949" /><line x1="150.0" x2="155.0" y1="259.8076" y2="268.4679" /><line x1="140.8415" x2="145.5362" y1="264.8843" y2="273.7138" /><line x1="131.5113" x2="135.8951" y1="269.6382" y2="278.6262" /><line x1="122.021" x2="126.0884" y1="274.0636" y2="283.1991" /><line x1="112.382" x2="116.128" y1="278.1552" y2="287.427" /><line x1="102.606" x2="106.0262" y1="281.9078" y2="291.3047" /><line x1="92.7051" x2="95.7953" y1="285.317" y2="294.8275" /><line x1="82.6912" x2="85.4476" y1="288.3785" y2="297.9911" /><line x1="72.5766" x2="74.9958" y1="291.0887" y2="300.7917" /><line x1="62.3735" x2="64.4526" y1="293.4443" y2="303.2258" /><line x1="52.0945" x2="53.8309" y1="295.4423" y2="305.2904" /><line x1="41.7519" x2="43.1437" y1="297.0804" y2="306.9831" /><line x1="31.3585" x2="32.4038" y1="298.3566" y2="308.3018" /><line x1="20.9269" x2="21.6245" y1="299.2692" y2="309.2449" /><line x1="10.4698" x2="10.8188" y1="299.8172" y2="309.8112" /><line x1="0.0" x2="0.0" y1="300.0" y2="310.0" /><line x1="-10.4698" x2="-10.8188" y1="299.8172" y2="309.8112" /><line x1="-20.9269" x2="-21.6245" y1="299.2692" y2="309.2449" /><line x1="-31.3585" x2="-32.4038" y1="298.3566" y2="308.3018" /><line x1="-41.7519" x2="-43.1437" y1="297.0804" y2="306.9831" /><line x1="-52.0945" x2="-53.8309" y1="295.4423" y2="305.2904" /><line x1="-62.3735" x2="-64.4526" y1="293.4443" y2="303.2258" /><line x1="-72.5766" x2="-74.9958" y1="291.0887" y2="300.7917" /><line x1="-82.6912" x2="-85.4476" y1="288.3785" y2="297.9911" /><line x1="-92.7051" x2="-95.7953" y1="285.317" y2="294.8275" /><line x1="-102.606" x2="-106.0262" y1="281.9078" y2="291.3047" /><line x1="-112.382" x2="-116.128" y1="278.1552" y2="287.427" /><line x1="-122.021" x2="-126.0884" y1="274.0636" y2="283.1991" /><line x1="-131.5113" x2="-135.8951" y1="269.6382" y2="278.6262" /><line x1="-140.8415" x2="-145.5362" y1="264.8843" y2="273.7138" /><line x1="-150.0" x2="-155.0" y1="259.8076" y2="268.4679" /><line x1="-158.9758" x2="-164.275" y1="254.4144" y2="262.8949" /><line x1="-167.7579" x2="-173.3498" y1="248.7113" y2="257.0016" /><line x1="-176.3356" x2="-182.2134" y1="242.7051" y2="250.7953" /><line x1="-184.6984" x2="-190.8551" y1="236.4032" y2="244.2833" /><line x1="-192.8363" x2="-199.2642" y1="229.8133" y2="237.4738" /><line x1="-200.7392" x2="-207.4305" y1="222.9434" y2="230.3749" /><line x1="-208.3975" x2="-215.3441" y1="215.8019" y2="222.9953" /><line x1="-215.8019" x2="-222.9953" y1="208.3975" y2="215.3441" /><line x1="-222.9434" x2="-230.3749" y1="200.7392" y2="207.4305" /><line x1="-229.8133" x2="-237.4738" y1="192.8363" y2="199.2642" /><line x1="-236.4032" x2="-244.2833" y1="184.6984" y2="190.8551" /><line x1="-242.7051" x2="-250.7953" y1="176.3356" y2="182.2134" /><line x1="-248.7113" x2="-257.0016" y1="167.7579" y2="173.3498" /><line x1="-254.4144" x2="-262.8949" y1="158.9758" y2="164.275" /><line x1="-259.8076" x2="-268.4679" y1="150.0" y2="155.0" /><line x1="-264.8843" x2="-273.7138" y1="140.8415" y2="145.5362" /><line x1="-269.6382" x2="-278.6262" y1="131.5113" y2="135.8951" /><line x1="-274.0636" x2="-283.1991" y1="122.021" y2="126.0884" /><line x1="-278.1552" x2="-287.427" y1="112.382" y2="116.128" /><line x1="-281.9078" x2="-291.3047" y1="102.606" y2="106.0262" /><line x1="-285.317" x2="-294.8275" y1="92.7051" y2="95.7953" /><line x1="-288.3785" x2="-297.9911" y1="82.6912" y2="85.4476" /><line x1="-291.0887" x2="-300.7917" y1="72.5766" y2="74.9958" /><line x1="-293.4443" x2="-303.2258" y1="62.3735" y2="64.4526" /><line x1="-295.4423" x2="-305.2904" y1="52.0945" y2="53.8309" /><line x1="-297.0804" x2="-306.9831" y1="41.7519" y2="43.1437" /><line x1="-298.3566" x2="-308.3018" y1="31.3585" y2="32.4038" /><line x1="-299.2692" x2="-309.2449" y1="20.9269" y2="21.6245" /><line x1="-299.8172" x2="-309.8112" y1="10.4698" y2="10.8188" /><line x1="-300.0" x2="-310.0" y1="0.0" y2="0.0" /><line x1="-299.8172" x2="-309.8112" y1="-10.4698" y2="-10.8188" /><line x1="-299.2692" x2="-309.2449" y1="-20.9269" y2="-21.6245" /><line x1="-298.3566" x2="-308.3018" y1="-31.3585" y2="-32.4038" /><line x1="-297.0804" x2="-306.9831" y1="-41.7519" y2="-43.1437" /><line x1="-295.4423" x2="-305.2904" y1="-52.0945" y2="-53.8309" /><line x1="-293.4443" x2="-303.2258" y1="-62.3735" y2="-64.4526" /><line x1="-291.0887" x2="-300.7917" y1="-72.5766" y2="-74.9958" /><line x1="-288.3785" x2="-297.9911" y1="-82.6912" y2="-85.4476" /><line x1="-285.317" x2="-294.8275" y1="-92.7051" y2="-95.7953" /><line x1="-281.9078" x2="-291.3047" y1="-102.606" y2="-106.0262" /><line x1="-278.1552" x2="-287.427" y1="-112.382" y2="-116.128" /><line x1="-274.0636" x2="-283.1991" y1="-122.021" y2="-126.0884" /><line x1="-269.6382" x2="-278.6262" y1="-131.5113" y2="-135.8951" /><line x1="-264.8843" x2="-273.7138" y1="-140.8415" y2="-145.5362" /><line x1="-259.8076" x2="-268.4679" y1="-150.0" y2="-155.0" /><line x1="-254.4144" x2="-262.8949" y1="-158.9758" y2="-164.275" /><line x1="-248.7113" x2="-257.0016" y1="-167.7579" y2="-173.3498" /><line x1="-242.7051" x2="-250.7953" y1="-176.3356" y2="-182.2134" /><line x1="-236.4032" x2="-244.2833" y1="-184.6984" y2="-190.8551" /><line x1="-229.8133" x2="-237.4738" y1="-192.8363" y2="-199.2642" /><line x1="-222.9434" x2="-230.3749" y1="-200.7392" y2="-207.4305" /><line x1="-215.8019" x2="-222.9953" y1="-208.3975" y2="-215.3441" /><line x1="-208.3975" x2="-215.3441" y1="-215.8019" y2="-222.9953" /><line x1="-200.7392" x2="-207.4305" y1="-222.9434" y2="-230.3749" /><line x1="-192.8363" x2="-199.2642" y1="-229.8133" y2="-237.4738" /><line x1="-184.6984" x2="-190.8551" y1="-236.4032" y2="-244.2833" /><line x1="-176.3356" x2="-182.2134" y1="-242.7051" y2="-250.7953" /><line x1="-167.7579" x2="-173.3498" y1="-248.7113" y2="-257.0016" /><line x1="-158.9758" x2="-164.275" y1="-254.4144" y2="-262.8949" /><line x1="-150.0" x2="-155.0" y1="-259.8076" y2="-268.4679" /><line x1="-140.8415" x2="-145.5362" y1="-264.8843" y2="-273.7138" /><line x1="-131.5113" x2="-135.8951" y1="-269.6382" y2="-278.6262" /><line x1="-122.021" x2="-126.0884" y1="-274.0636" y2="-283.1991" /><line x1="-112.382" x2="-116.128" y1="-278.1552" y2="-287.427" /><line x1="-102.606" x2="-106.0262" y1="-281.9078" y2="-291.3047" /><line x1="-92.7051" x2="-95.7953" y1="-285.317" y2="-294.8275" /><line x1="-82.6912" x2="-85.4476" y1="-288.3785" y2="-297.9911" /><line x1="-72.5766" x2="-74.9958" y1="-291.0887" y2="-300.7917" /><line x1="-62.3735" x2="-64.4526" y1="-293.4443" y2="-303.2258" /><line x1="-52.0945" x2="-53.8309" y1="-295.4423" y2="-305.2904" /><line x1="-41.7519" x2="-43.1437" y1="-297.0804" y2="-306.9831" /><line x1="-31.3585" x2="-32.4038" y1="-298.3566" y2="-308.3018" /><line x1="-20.9269" x2="-21.6245" y1="-299.2692" y2="-309.2449" /><line x1="-10.4698" x2="-10.8188" y1="-299.8172" y2="-309.8112" /><line x1="-0.0" x2="-0.0" y1="-300.0" y2="-310.0" /><line x1="10.4698" x2="10.8188" y1="-299.8172" y2="-309.8112" /><line x1="20.9269" x2="21.6245" y1="-299.2692" y2="-309.2449" /><line x1="31.3585" x2="32.4038" y1="-298.3566" y2="-308.3018" /><line x1="41.7519" x2="43.1437" y1="-297.0804" y2="-306.9831" /><line x1="52.0945" x2="53.8309" y1="-295.4423" y2="-305.2904" /><line x1="62.3735" x2="64.4526" y1="-293.4443" y2="-303.2258" /><line x1="72.5766" x2="74.9958" y1="-291.0887" y2="-300.7917" /><line x1="82.6912" x2="85.4476" y1="-288.3785" y2="-297.9911" /><line x1="92.7051" x2="95.7953" y1="-285.317" y2="-294.8275" /><line x1="102.606" x2="106.0262" y1="-281.9078" y2="-291.3047" /><line x1="112.382" x2="116.128" y1="-278.1552" y2="-287.427" /><line x1="122.021" x2="126.0884" y1="-274.0636" y2="-283.1991" /><line x1="131.5113" x2="135.8951" y1="-269.6382" y2="-278.6262" /><line x1="140.8415" x2="145.5362" y1="-264.8843" y2="-273.7138" /><line x1="150.0" x2="155.0" y1="-259.8076" y2="-268.4679" /><line x1="158.9758" x2="164.275" y1="-254.4144" y2="-262.8949" /><line x1="167.7579" x2="173.3498" y1="-248.7113" y2="-257.0016" /><line x1="176.3356" x2="182.2134" y1="-242.7051" y2="-250.7953" /><line x1="184.6984" x2="190.8551" y1="-236.4032" y2="-244.2833" /><line x1="192.8363" x2="199.2642" y1="-229.8133" y2="-237.4738" /><line x1="200.7392" x2="207.4305" y1="-222.9434" y2="-230.3749" /><line x1="208.3975" x2="215.3441" y1="-215.8019" y2="-222.9953" /><line x1="215.8019" x2="222.9953" y1="-208.3975" y2="-215.3441" /><line x1="222.9434" x2="230.3749" y1="-200.7392" y2="-207.4305" /><line x1="229.8133" x2="237.4738" y1="-192.8363" y2="-199.2642" /><line x1="236.4032" x2="244.2833" y1="-184.6984" y2="-190.8551" /><line x1="242.7051" x2="250.7953" y1="-176.3356" y2="-182.2134" /><line x1="248.7113" x2="257.0016" y1="-167.7579" y2="-173.3498" /><line x1="254.4144" x2="262.8949" y1="-158.9758" y2="-164.275" /><line x1="259.8076" x2="268.4679" y1="-150.0" y2="-155.0" /><line x1="264.8843" x2="273.7138" y1="-140.8415" y2="-145.5362" /><line x1="269.6382" x2="278.6262" y1="-131.5113" y2="-135.8951" /><line x1="274.0636" x2="283.1991" y1="-122.021" y2="-126.0884" /><line x1="278.1552" x2="287.427" y1="-112.382" y2="-116.128" /><line x1="281.9078" x2="291.3047" y1="-102.606" y2="-106.0262" /><line x1="285.317" x2="294.8275" y1="-92.7051" y2="-95.7953" /><line x1="288.3785" x2="297.9911" y1="-82.6912" y2="-85.4476" /><line x1="291.0887" x2="300.7917" y1="-72.5766" y2="-74.9958" /><line x1="293.4443" x2="303.2258" y1="-62.3735" y2="-64.4526" /><line x1="295.4423" x2="305.2904" y1="-52.0945" y2="-53.8309" /><line x1="297.0804" x2="306.9831" y1="-41.7519" y2="-43.1437" /><line x1="298.3566" x2="308.3018" y1="-31.3585" y2="-32.4038" /><line x1="299.2692" x2="309.2449" y1="-20.9269" y2="-21.6245" /><line x1="299.8172" x2="309.8112" y1="-10.4698" y2="-10.8188" /><circle cx="320.0" cy="0.0" r="30" /><circle cx="277.1281" cy="160.0" r="30" /></g></svg>