<?xml version="1.0" encoding="UTF-8" standalone="no"?>
<!-- Created with Inkscape (http://www.inkscape.org/) -->

<svg
   xmlns:dc="http://purl.org/dc/elements/1.1/"
   xmlns:cc="http://creativecommons.org/ns#"
   xmlns:rdf="http://www.w3.org/1999/02/22-rdf-syntax-ns#"
   xmlns:svg="http://www.w3.org/2000/svg"
   xmlns="http://www.w3.org/2000/svg"
   xmlns:sodipodi="http://sodipodi.sourceforge.net/DTD/sodipodi-0.dtd"
   xmlns:inkscape="http://www.inkscape.org/namespaces/inkscape"
   width="400"
   height="400"
   id="svg2"
   sodipodi:version="0.32"
   inkscape:version="0.48.4 r9939"
   version="1.0"
   sodipodi:docname="segnig.svg"
   inkscape:output_extension="org.inkscape.output.svg.inkscape"
   style="display:inline">
  <defs
     id="defs4">
    <inkscape:perspective
       sodipodi:type="inkscape:persp3d"
       inkscape:vp_x="-50 : 600 : 1"
       inkscape:vp_y="0 : 1000 : 0"
       inkscape:vp_z="700 : 600 : 1"
       inkscape:persp3d-origin="300 : 400 : 1"
       id="perspective2418" />
    <inkscape:perspective
       sodipodi:type="inkscape:persp3d"
       inkscape:vp_x="-50 : 600 : 1"
       inkscape:vp_y="0 : 1000 : 0"
       inkscape:vp_z="700 : 600 : 1"
       inkscape:persp3d-origin="300 : 400 : 1"
       id="perspective10" />
  </defs>
  <sodipodi:namedview
     id="base"
     pagecolor="#ffffff"
     bordercolor="#666666"
     borderopacity="1.0"
     gridtolerance="10000"
     guidetolerance="10"
     objecttolerance="10000"
     inkscape:pageopacity="0.0"
     inkscape:pageshadow="2"
     inkscape:zoom="2.0470873"
     inkscape:cx="51.351077"
     inkscape:cy="339.48551"
     inkscape:document-units="px"
     inkscape:current-layer="layer1"
     showgrid="true"
     inkscape:window-width="1317"
     inkscape:window-height="744"
     inkscape:window-x="49"
     inkscape:window-y="24"
     inkscape:window-maximized="1"
     height="744.09px">
    <inkscape:grid
       type="xygrid"
       id="grid3128"
       empspacing="5"
       visible="true"
       enabled="true"
       snapvisiblegridlinesonly="true" />
  </sodipodi:namedview>
  <metadata
     id="metadata7">
    <rdf:RDF>
      <cc:Work
         rdf:about="">
        <dc:format>image/svg+xml</dc:format>
        <dc:type
           rdf:resource="http://purl.org/dc/dcmitype/StillImage" />
        <dc:title></dc:title>
        <dc:date>12 February 2008</dc:date>
        <dc:creator>
          <cc:Agent>
            <dc:title>Tavmjong Bah</dc:title>
          </cc:Agent>
        </dc:creator>
        <dc:subject>
          <rdf:Bag>
            <rdf:li>Astrological signs</rdf:li>
          </rdf:Bag>
        </dc:subject>
        <cc:license
           rdf:resource="http://creativecommons.org/licenses/by-sa/3.0/" />
      </cc:Work>
      <cc:License
         rdf:about="http://creativecommons.org/licenses/by-sa/3.0/">
        <cc:permits
           rdf:resource="http://creativecommons.org/ns#Reproduction" />
        <cc:permits
           rdf:resource="http://creativecommons.org/ns#Distribution" />
        <cc:requires
           rdf:resource="http://creativecommons.org/ns#Notice" />
        <cc:requires
           rdf:resource="http://creativecommons.org/ns#Attribution" />
        <cc:permits
           rdf:resource="http://creativecommons.org/ns#DerivativeWorks" />
        <cc:requires
           rdf:resource="http://creativecommons.org/ns#ShareAlike" />
      </cc:License>
    </rdf:RDF>
  </metadata>
  <g
     inkscape:label="Layer 1"
     inkscape:groupmode="layer"
     id="layer1">
    <g
       id="simboli-segni-zodiacali"
       inkscape:label="#g3106">
      <path
         inkscape:connector-curvature="0"
         inkscape:label="#text2421"
         id="ariete"
         d="m -2.3474721,22.812022 0,-3.78125 c -2.4e-5,-2.97916 -0.645857,-8.29166 -1.9375,-15.9374992 -0.583355,-3.60414001 -1.541688,-7.35414 -2.875,-11.25 -1.354185,-3.9583008 -2.7708497,-7.0624608 -4.2499999,-9.3125008 -1.145848,-1.70829 -2.51043,-2.56246 -4.09375,-2.5625 -1.791676,4e-5 -3.041675,0.68754 -3.75,2.0625 -0.64584,1.27087 -0.968757,2.65629 -0.96875,4.15625 -7e-6,3.1667 1.135409,6.0312808 3.40625,8.5937508 l -5.3125,0 c -1.833336,-2.81247 -2.750002,-5.7812208 -2.75,-8.9062508 -2e-6,-3.27079 0.874997,-5.83329 2.625,-7.6875 1.812494,-1.91662 4.010408,-2.87495 6.59375,-2.875 3.333319,5e-5 5.9374832,1.37505 7.8124999,4.125 2.124979,3.10421 3.89581,6.87504 5.3125,11.3125008 0.999975,3.22919 1.843724,6.80211 2.53125002,10.71875 0.687472,-3.91664 1.53122198,-7.48956 2.53124998,-10.71875 1.333303,-4.3333008 3.104134,-8.1041308 5.3125004,-11.3125008 1.8749626,-2.74995 4.4791277,-4.12495 7.8124997,-4.125 2.583288,5e-5 4.781203,0.95838 6.59375,2.875 1.749949,1.85421 2.624948,4.41671 2.625,7.6875 -5.2e-5,3.12503 -0.916717,6.0937808 -2.75,8.9062508 l -5.3125,0 c 2.270787,-2.56247 3.406203,-5.4270508 3.40625,-8.5937508 -4.7e-5,-1.49996 -0.322963,-2.88538 -0.96875,-4.15625 -0.708379,-1.37496 -1.958377,-2.06246 -3.75,-2.0625 -1.583374,4e-5 -2.947956,0.85421 -4.09375,2.5625 -1.4792031,2.25004 -2.8958687,5.3542 -4.2499997,9.3125008 -1.3333664,3.89586 -2.2916984,7.64585999 -2.8750004,11.25 -1.291696,7.6458392 -1.937529,12.9583392 -1.9375,15.9374992 l 0,3.78125 -4.6875,0"
         style="font-size:64px;font-style:normal;font-variant:normal;font-weight:normal;font-stretch:normal;text-align:start;line-height:125%;writing-mode:lr-tb;text-anchor:start;fill:#000000;fill-opacity:1;stroke:none;font-family:Arev Sans;-inkscape-font-specification:Arev Sans" />
      <path
         inkscape:label="#text2425"
         inkscape:connector-curvature="0"
         id="gemelli"
         d="m 13.03903,17.691251 c 3.47912,0.479172 6.87495,1.135421 10.1875,1.96875 l 0,4.656249 c -7.37504,-1.85416 -15.14587,-2.781247 -23.3125,-2.781249 -8.16669,2e-6 -15.937511,0.927079 -23.312501,2.781249 l 0,-4.656249 c 3.31249,-0.833329 6.70832,-1.489578 10.1875,-1.96875 l 0,-35.15625 c -3.47918,-0.479126 -6.87501,-1.135375 -10.1875,-1.96875 l 0,-4.65625 c 7.37499,1.854212 15.145811,2.781294 23.312501,2.78125 8.16663,4.4e-5 15.93746,-0.927038 23.3125,-2.78125 l 0,4.65625 c -3.31255,0.833375 -6.70838,1.489624 -10.1875,1.96875 l 0,35.15625 m -4.6875,-34.65625 c -2.77087,0.229207 -5.58336,0.34379 -8.4375,0.34375 -2.85419,4e-5 -5.66669,-0.114543 -8.4375,-0.34375 l 0,34.15625 c 2.77081,-0.229161 5.58331,-0.343744 8.4375,-0.34375 2.85414,6e-6 5.66663,0.114589 8.4375,0.34375 l 0,-34.15625"
         style="font-size:64px;font-style:normal;font-variant:normal;font-weight:normal;font-stretch:normal;text-align:start;line-height:125%;writing-mode:lr-tb;text-anchor:start;fill:#000000;fill-opacity:1;stroke:none;font-family:Arev Sans;-inkscape-font-specification:Arev Sans" />
      <path
         inkscape:connector-curvature="0"
         id="text2429"
         d="m -5.7914235,6.1473493 -17.8437495,0 0,-4.6874998 10.75,0 c -0.75001,-0.95830999 -1.37501,-1.99997999 -1.875,-3.125 -0.77084,-1.77081 -1.15626,-3.64581 -1.15625,-5.625 -10e-6,-2.04164 0.38541,-3.9478895 1.15625,-5.7187495 0.81249,-1.8333 1.95832,-3.44788 3.4375,-4.84375 1.4791495,-1.3958 3.1666495,-2.47913 5.0624995,-3.25 1.81248,-0.72913 3.79164,-1.09371 5.93750001,-1.09375 2.24996999,4e-5 4.22913999,0.36462 5.93749999,1.09375 1.97913,0.85421 3.66663,1.93754 5.0625005,3.25 1.47913,1.39587 2.62496,3.01045 3.4375,4.84375 0.77079,1.77086 1.15621,3.6771095 1.15625,5.7187495 -4e-5,1.97919 -0.38546,3.85419 -1.15625,5.625 -0.50004,1.12502001 -1.12504,2.16669001 -1.875,3.125 l 10.749997,0 0,4.6874998 -17.8749975,0 0,-4.6874998 c 0.79163,-0.43748 1.54163,-0.96872999 2.25,-1.59374999 1.0208,-0.89581001 1.82288,-1.99998001 2.40625,-3.31250001 0.5416305,-1.22914 0.8124605,-2.52081 0.8125005,-3.875 -4e-5,-1.37497 -0.27087,-2.67705 -0.8125005,-3.9062495 -0.56254,-1.22914 -1.36462,-2.3333 -2.40625,-3.3125 -0.9792,-0.8958 -2.15628,-1.63538 -3.53125,-2.21875 -1.18753,-0.49996 -2.57295,-0.74996 -4.15624999,-0.75 -1.50003001,4e-5 -2.88544001,0.25004 -4.15625001,0.75 -1.31252,0.52087 -2.4896,1.26045 -3.53125,2.21875 -1.04168,0.9792 -1.84377,2.08336 -2.4062495,3.3125 -0.54168,1.2291995 -0.81252,2.5312795 -0.8125,3.9062495 -2e-5,1.35419 0.27082,2.64586 0.8125,3.875 0.5624795,1.22919 1.3645695,2.33335 2.4062495,3.31250001 0.64581,0.60419 1.3854,1.13542999 2.21875,1.59374999 l 0,4.6874998 m -17.8437495,14.0624997 0,-4.6875 46.624997,0 0,4.6875 -46.624997,0"
         style="font-size:64px;font-style:normal;font-variant:normal;font-weight:normal;font-stretch:normal;text-align:start;line-height:125%;writing-mode:lr-tb;text-anchor:start;fill:#000000;fill-opacity:1;stroke:none;font-family:Arev Sans;-inkscape-font-specification:Arev Sans" />
      <path
         inkscape:connector-curvature="0"
         inkscape:label="#text2433"
         id="toro"
         d="m -13.7798,-11.668652 c -0.56251,-1.333297 -1.36459,-2.520796 -2.40625,-3.5625 -0.95834,-0.958294 -2.13542,-1.74996 -3.53125,-2.375 -1.20834,-0.541625 -2.59375,-0.812458 -4.15625,-0.8125 l 0,-4.6875 c 2.14583,4.6e-5 4.12499,0.385463 5.9375,1.15625 1.89582,0.812545 3.58332,1.94796 5.0625,3.40625 1.49999,1.479207 2.64582,3.177122 3.4375,5.09375 0.56248,1.333369 1.36457,2.520868 2.40625,3.5625 0.95831,0.958366 2.1354,1.750032 3.53125,2.375 1.20831,0.541697 2.59372,0.81253 4.15625,0.8125 1.49997,3e-5 2.88539,-0.270803 4.15625,-0.8125 1.3333,-0.562469 2.51038,-1.354134 3.53125,-2.375 1.04163,-1.041632 1.84371,-2.229131 2.40625,-3.5625 0.79163,-1.916628 1.93746,-3.614543 3.4375,-5.09375 1.47912,-1.45829 3.16662,-2.593705 5.0625,-3.40625 1.81245,-0.770787 3.79162,-1.156204 5.9375,-1.15625 l 0,4.6875 c -1.56255,4.2e-5 -2.94797,0.270875 -4.15625,0.8125 -1.39588,0.62504 -2.57296,1.416706 -3.53125,2.375 -1.04171,1.041704 -1.84379,2.229203 -2.40625,3.5625 -0.79171,1.895866 -1.93754,3.593781 -3.4375,5.09375 -0.7292,0.729196 -1.67712,1.468778 -2.84375,2.21875 1.16663,0.750027 2.11455,1.48961 2.84375,2.21875 1.49996,1.500024 2.64579,3.197939 3.4375,5.09375 0.77079,1.875019 1.15621,3.885433 1.15625,6.03125 -4e-5,2.083346 -0.38546,4.062506 -1.15625,5.937496 -0.81254,1.91668 -1.95837,3.61459 -3.4375,5.09375 -1.4792,1.45834 -3.1667,2.59375 -5.0625,3.40625 -1.81253,0.77084 -3.7917,1.15625 -5.9375,1.15625 -2.25002,0 -4.22919,-0.38541 -5.9375,-1.15625 -1.97919,-0.89583 -3.66668,-2.03124 -5.0625,-3.40625 -1.47918,-1.47916 -2.62501,-3.17707 -3.4375,-5.09375 -0.77084,-1.87499 -1.15626,-3.85415 -1.15625,-5.937496 -10e-6,-2.145817 0.38541,-4.156231 1.15625,-6.03125 0.83332,-2.020811 1.97915,-3.718726 3.4375,-5.09375 0.89582,-0.85414 1.85415,-1.593723 2.875,-2.21875 -1.04168,-0.624972 -2.00002,-1.364554 -2.875,-2.21875 -1.45835,-1.416635 -2.60418,-3.11455 -3.4375,-5.09375 m 18.59375,10.46875 c -1.27086,-0.541642 -2.65628,-0.812475 -4.15625,-0.8125 -1.50003,2.5e-5 -2.88544,0.270858 -4.15625,0.8125 -1.29169,0.583357 -2.46877,1.375023 -3.53125,2.375 -1.08335,1.125021 -1.88543,2.31252 -2.40625,3.5625 -0.54168,1.312517 -0.81252,2.729183 -0.8125,4.25 -2e-5,1.458346 0.27082,2.843766 0.8125,4.156246 0.52082,1.25001 1.3229,2.43751 2.40625,3.5625 1.06248,1.00001 2.23956,1.79168 3.53125,2.375 1.27081,0.54167 2.65622,0.81251 4.15625,0.8125 1.49997,10e-6 2.88539,-0.27083 4.15625,-0.8125 1.29163,-0.58332 2.46872,-1.37499 3.53125,-2.375 1.0833,-1.12499 1.88538,-2.31249 2.40625,-3.5625 0.54163,-1.31248 0.81246,-2.6979 0.8125,-4.156246 -4e-5,-1.520817 -0.27087,-2.937483 -0.8125,-4.25 C 10.23058,3.487618 9.4285,2.300119 8.3452,1.175098 7.28267,0.175121 6.10558,-0.616545 4.81395,-1.199902"
         style="font-size:64px;font-style:normal;font-variant:normal;font-weight:normal;font-stretch:normal;text-align:start;line-height:125%;writing-mode:lr-tb;text-anchor:start;fill:#000000;fill-opacity:1;stroke:none;font-family:Arev Sans;-inkscape-font-specification:Arev Sans" />
      <path
         inkscape:connector-curvature="0"
         inkscape:label="#text2437"
         id="vergine"
         d="m 12.54735,15.335415 c 2.31245,-2.33333 4.08329,-4.98958 5.3125,-7.9687501 1.22912,-2.99999 1.8437,-6.16665 1.84374,-9.5 -4e-5,-2.89581 -0.17712,-4.99997 -0.53124,-6.3125 -0.54172,-2.0207999 -1.29172,-3.0312199 -2.25,-3.0312499 -0.54171,3e-5 -1.30213,0.9792 -2.28126,2.9374999 -1.39587,2.79169 -2.09378,5.91669 -2.09374,9.37500003 l 0,14.50000007 m -3.7499997,8.625 c -0.89587,0.47916 -1.81254,0.92708 -2.75,1.34375 -2.31254,1.02083 -4.83337,1.67707 -7.5625,1.96875 l 0,-4.71875 c 2.06246996,-0.29167 3.98955,-0.82292 5.78124,-1.59375 1.29164,-0.5625 2.51039,-1.20833 3.65626,-1.9375 -0.0417,-0.47917 -0.0625,-0.97917 -0.0625,-1.5 l 0,-28.75 c -4e-5,-3.7083 -0.21879,-6.51038 -0.65626,-8.40625 -0.66669,-2.91663 -1.48961,-4.37496 -2.46874,-4.375 -1.00004,4e-5 -2.38545,1.86462 -4.15626004,5.59375 -1.39585,2.93753 -2.09376996,6.06253 -2.09373996,9.3749999 l 0,26.5937501 -4.6875,0 0,-28.78125 c -3e-5,-3.68747 -0.21878,-6.48955 -0.65626,-8.40625 -0.64585,-2.91663 -1.46876,-4.37496 -2.46874,-4.375 -1.0000203,4e-5 -2.3854403,1.86462 -4.1562603,5.59375 -1.39584,2.93753 -2.09376,6.06253 -2.09374,9.3749999 l 0,26.5937501 -4.6875,0 0,-28.78125 c -1e-5,-4.35413 -0.56251,-8.21871 -1.6875,-11.59375 -0.64584,-1.93746 -1.75001,-3.89579 -3.3125,-5.875 l 4.8125,0 c 0.81249,0.81255 1.53124,1.81255 2.15624,3 0.70833,1.37504 1.27083,2.91671 1.6875,4.625 0.62499,-1.85413 1.45833,-3.45829 2.5,-4.8125 2.10416,-2.70829 3.82291,-4.06245 5.1562603,-4.0625 1.47914,5e-5 3.05206,1.41671 4.71874,4.25 0.64582,1.08338 1.20831,2.62504 1.6875,4.625 0.62498,-1.85413 1.45831,-3.45829 2.49999996,-4.8125 2.10414004,-2.70829 3.92706004,-4.06245 5.46876004,-4.0625 1.47913,5e-5 3.05204,1.41671 4.7187397,4.25 0.8958,1.50004 1.4583,3.04171 1.6875,4.625 0.31247,2.18754 0.5208,4.67712 0.625,7.46875 0.41663,-0.85413 0.93747,-1.65622 1.5625,-2.40625 1.5208,-1.81246 2.85413,-2.71871 4,-2.71875 1.66663,4e-5 3.11454,1.64587 4.34376,4.9375 1.35411,3.62503 2.03119,7.5104399 2.03124,11.6562499 -5e-5,4.06252 -0.72921,7.82293 -2.1875,11.28125 -1.58338,3.7500101 -3.76046,6.9791701 -6.53124,9.6875001 -0.87505,0.85417 -1.79171,1.65625 -2.75,2.40625 0.22912,0.97916 0.53121,1.92708 0.90624,2.84375 0.81246,1.97916 2.07288,3.84374 3.78126,5.59375 l -6.0625,0 c -0.93754,-1.50001 -1.6250397,-2.77084 -2.0624997,-3.8125 -0.25004,-0.62501 -0.47921,-1.26042 -0.6875,-1.90625"
         style="font-size:64px;font-style:normal;font-variant:normal;font-weight:normal;font-stretch:normal;text-align:start;line-height:125%;writing-mode:lr-tb;text-anchor:start;fill:#000000;fill-opacity:1;stroke:none;font-family:Arev Sans;-inkscape-font-specification:Arev Sans" />
      <path
         inkscape:connector-curvature="0"
         inkscape:label="#text2441"
         id="scorpione"
         d="m 16.625497,26.001332 c -1.60421,-1e-5 -2.89587,-0.21876 -3.875,-0.65625 -1.12504,-0.50001 -2.06254,-1.125008 -2.8125002,-1.874998 -0.83337,-0.83334 -1.45837,-1.76042 -1.875,-2.78125 -0.4167,-1.04167 -0.62503,-2.25 -0.625,-3.625 l 0,-28.750003 c -3e-5,-3.7083 -0.21878,-6.51038 -0.65625,-8.40625 -0.6667,-2.91663 -1.48962,-4.37496 -2.46875,-4.375 -1.00003,4e-5 -2.38545,1.86462 -4.15624996,5.59375 -1.39586004,2.93753 -2.09377004,6.06253 -2.09375004,9.3749999 l 0,26.5937531 -4.6875,0 0,-28.781253 c -2e-5,-3.68747 -0.21877,-6.48955 -0.65625,-8.40625 -0.64585,-2.91663 -1.46877,-4.37496 -2.46875,-4.375 -1.0000198,4e-5 -2.3854298,1.86462 -4.1562498,5.59375 -1.39584,2.93753 -2.09376,6.06253 -2.09375,9.3749999 l 0,26.5937531 -4.687501,0 0,-28.781253 c -10e-6,-4.35413 -0.56251,-8.21871 -1.6875,-11.59375 -0.64584,-1.93746 -1.75,-3.89579 -3.312499,-5.875 l 4.812499,0 c 0.81249,0.81255 1.53124,1.81255 2.15625,3 0.70832,1.37504 1.27082,2.91671 1.6875,4.625 0.624991,-1.85413 1.458321,-3.45829 2.500001,-4.8125 2.10415,-2.70829 3.8229,-4.06245 5.1562498,-4.0625 1.47915,5e-5 3.05206,1.41671 4.71875,4.25 0.64581,1.08338 1.20831,2.62504 1.6875,4.625 0.62498,-1.85413 1.45831,-3.45829 2.50000004,-4.8125 2.10413996,-2.70829 3.92704996,-4.06245 5.46874996,-4.0625 1.47913,5e-5 3.05205,1.41671 4.71875,4.25 0.8958002,1.50004 1.4583002,3.04171 1.6875002,4.625 0.41663,2.89587 0.62496,5.38545 0.625,7.46875 l 0,31.156253 c -4e-5,0.79167 0.09371,1.38542 0.28125,1.78125 0.24996,0.54167 0.54163,0.96875 0.875,1.28125 0.37496,0.35416 0.79163,0.63541 1.25,0.84375 0.45829,0.20833 1.16662,0.3125 2.125,0.3125 l 1.8125,0 0,-4.0625 6.6875,6.40625 -6.6875,6.437498 0,-4.09375 -1.75,0"
         style="font-size:64px;font-style:normal;font-variant:normal;font-weight:normal;font-stretch:normal;text-align:start;line-height:125%;writing-mode:lr-tb;text-anchor:start;fill:#000000;fill-opacity:1;stroke:none;font-family:Arev Sans;-inkscape-font-specification:Arev Sans" />
      <path
         inkscape:connector-curvature="0"
         inkscape:label="#text2445"
         id="cancro"
         d="m -22.610784,7.7903605 c 1.89583,1.208348 3.71875,2.187513 5.46876,2.9374995 4.45831,1.937511 9.4062295,2.90626 14.8437395,2.90625 3.41664,10e-6 6.65622,-0.385407 9.71876,-1.15625 -0.27087,-0.229156 -0.52087,-0.458322 -0.75,-0.6875 -0.93754,-0.958321 -1.62504,-1.9791525 -2.0625,-3.0624995 -0.45837,-1.124984 -0.68754,-2.3229 -0.6875,-3.59375 -4e-5,-1.249981 0.22913,-2.437479 0.6875,-3.5625 0.47913,-1.18747701 1.16663,-2.20830901 2.0625,-3.0625 0.97913,-0.937474 1.98954,-1.624974 3.03124,-2.0625 1.0833005,-0.458306 2.2708005,-0.687472 3.5625005,-0.6875 1.35413,2.8e-5 2.54163,0.229194 3.5625,0.6875 1.20829,0.541693 2.21871,1.229192 3.03126,2.0625 0.93745,0.95835699 1.62495,1.97918999 2.0625,3.0625 0.45828,1.125021 0.68745,2.312519 0.6875,3.5625 -5e-5,1.250017 -0.22922,2.447932 -0.6875,3.59375 -0.50005,1.250013 -1.29172,2.3229285 -2.375,3.2187495 -1.52088,1.25001 -3.26046,2.291676 -5.21876,3.125 -5.0833605,2.166673 -10.6250305,3.250005 -16.6250005,3.25 -6.14585,5e-6 -11.6875095,-1.083327 -16.6249995,-3.25 -1.27083,-0.562491 -2.5,-1.156241 -3.6875,-1.78125 l 0,-5.4999995 m 34.09376,1.71875 c 0.54162,0.22918 1.13537,0.343763 1.78124,0.34375 0.6458,1.3e-5 1.23955,-0.11457 1.78126,-0.34375 0.56245,-0.249986 1.07287,-0.593736 1.53124,-1.03125 0.41663,-0.416651 0.76038,-0.927068 1.03126,-1.53125 0.22912,-0.562483 0.3437,-1.166649 0.34374,-1.8125 -4e-5,-0.624981 -0.11462,-1.218731 -0.34374,-1.78125 -0.22922,-0.541646 -0.57297,-1.052062 -1.03126,-1.53125 -0.39587,-0.395811 -0.90629,-0.739561 -1.53124,-1.03125001 -0.54171,-0.229144 -1.13546,-0.343727 -1.78126,-0.34375 -0.64587,2.3e-5 -1.23962,0.114606 -1.78124,0.34375 -0.56254,0.25002201 -1.07296,0.59377201 -1.5312605,1.03125001 -0.4167,0.416688 -0.76045,0.927104 -1.03124,1.53125 -0.22921,0.562519 -0.34379,1.156269 -0.34376,1.78125 -3e-5,0.645851 0.11455,1.250017 0.34376,1.8125 0.22913,0.541683 0.57288,1.052099 1.03124,1.53125 0.3958005,0.395848 0.9062205,0.739597 1.5312605,1.03125 m 11.125,-16.6875 c -1.89589,-1.208302 -3.7188,-2.187467 -5.46876,-2.9375005 -4.45837,-1.937465 -9.4062805,-2.906214 -14.8437405,-2.90625 -3.4167,3.6e-5 -6.65628,0.385453 -9.71876,1.15625 0.27082,0.229202 0.52082,0.458368 0.75,0.6875 0.93748,0.958367 1.62498,1.9791995 2.0625,3.0625005 0.45832,1.12503 0.68748,2.322946 0.6875,3.59375 -2e-5,1.250027 -0.22918,2.437525 -0.6875,3.56249999 -0.47918,1.187523 -1.16668,2.20835501 -2.0625,3.06250001 -0.97918,0.93752 -1.9896,1.62502 -3.03124,2.0625 -1.0833495,0.458352 -2.2708495,0.687518 -3.5624995,0.6875 -1.35418,1.8e-5 -2.54168,-0.229148 -3.5625,-0.6875 -1.20835,-0.541647 -2.21876,-1.229146 -3.03126,-2.0625 -0.9375,-0.958311 -1.625,-1.97914301 -2.0625,-3.06250001 -0.45833,-1.12497499 -0.6875,-2.31247299 -0.6875,-3.56249999 0,-1.249971 0.22917,-2.447886 0.6875,-3.59375 0.5,-1.249967 1.29167,-2.3228835 2.375,-3.2187505 1.52083,-1.249964 3.26041,-2.29163 5.21876,-3.125 5.0833095,-2.166627 10.6249695,-3.249959 16.6249995,-3.25 6.14579,4.1e-5 11.6874505,1.083373 16.6250005,3.25 1.27078,0.562537 2.49995,1.156287 3.6875,1.78125 l 0,5.5000005 m -34.09376,-1.71875 c -0.54168,-0.229134 -1.13543,-0.343717 -1.78124,-0.34375 -0.64585,3.3e-5 -1.2396,0.114616 -1.78126,0.34375 -0.56251,0.250032 -1.07292,0.593782 -1.53124,1.03125 -0.41668,0.416697 -0.76043,0.927114 -1.03126,1.53125 -0.22917,0.562529 -0.34375,1.166695 -0.34374,1.8125 -10e-6,0.625027 0.11457,1.218777 0.34374,1.78125 0.22916,0.541692 0.57291,1.052108 1.03126,1.53125 0.39582,0.39585699 0.90623,0.73960699 1.53124,1.03124999 0.54166,0.22919 1.13541,0.343773 1.78126,0.34375 0.64581,2.3e-5 1.23956,-0.11456 1.78124,-0.34375 0.56249,-0.249976 1.07291,-0.593726 1.5312595,-1.03124999 0.41664,-0.416642 0.76039,-0.927058 1.03124,-1.53125 0.22915,-0.562473 0.34374,-1.156223 0.34376,-1.78125 -2e-5,-0.645805 -0.11461,-1.249971 -0.34376,-1.8125 -0.22918,-0.541636 -0.57293,-1.052053 -1.03124,-1.53125 -0.3958495,-0.395802 -0.9062695,-0.739551 -1.5312595,-1.03125"
         style="font-size:64px;font-style:normal;font-variant:normal;font-weight:normal;font-stretch:normal;text-align:start;line-height:125%;writing-mode:lr-tb;text-anchor:start;fill:#000000;fill-opacity:1;stroke:none;font-family:Arev Sans;-inkscape-font-specification:Arev Sans" />
      <path
         inkscape:connector-curvature="0"
         inkscape:label="#text2449"
         id="sagittario"
         d="m 13.266623,-12.040989 -16.8749995,16.8749996 8.46875,8.4687464 -3.3125,3.3125 -8.468746,-8.4687464 -11.0625005,11.0624964 -3.3125,-3.3125 11.0625,-11.0624964 -8.46875,-8.46875 3.3125,-3.3125 8.4687505,8.46875 16.906246,-16.9062496 -12.84375,0 0,-4.6875 20.8124995,0 0,20.8124996 -4.6875,0 0,-12.7812496"
         style="font-size:64px;font-style:normal;font-variant:normal;font-weight:normal;font-stretch:normal;text-align:start;line-height:125%;writing-mode:lr-tb;text-anchor:start;fill:#000000;fill-opacity:1;stroke:none;font-family:Arev Sans;-inkscape-font-specification:Arev Sans" />
      <path
         inkscape:connector-curvature="0"
         inkscape:label="#text2453"
         id="acquario"
         d="m -8.1095539,-3.2323619 -3.6250001,-6.25 -10.8125,6.25 -2.34376,-4.03125 14.9062601,-8.5937501 3.59374,6.2500001 10.84376,-6.2500001 3.59374,6.2500001 10.8437599,-6.2500001 5.9375,10.2812501 -4.0625,2.34375 -3.625,-6.25 -10.8124999,6.25 -3.625,-6.25 -10.8125,6.25 m 0,19.9999999 -3.6250001,-6.25 -10.8125,6.25 -2.34376,-4.03125 14.9062601,-8.5937499 3.59374,6.2499999 10.84376,-6.2499999 3.59374,6.2499999 10.8437599,-6.2499999 5.9375,10.2812499 -4.0625,2.34375 -3.625,-6.25 -10.8124999,6.25 -3.625,-6.25 -10.8125,6.25"
         style="font-size:64px;font-style:normal;font-variant:normal;font-weight:normal;font-stretch:normal;text-align:start;line-height:125%;writing-mode:lr-tb;text-anchor:start;fill:#000000;fill-opacity:1;stroke:none;font-family:Arev Sans;-inkscape-font-specification:Arev Sans" />
      <path
         inkscape:connector-curvature="0"
         inkscape:label="#text2457"
         id="leone"
         d="m 8.1338713,12.453551 c -0.187534,0.72917 -0.281284,1.33334 -0.28125,1.8125 -3.4e-5,0.72917 0.09372,1.32292 0.28125,1.78125 0.249965,0.54167 0.5416319,0.96875 0.8749999,1.28125 0.374964,0.35417 0.791631,0.63542 1.2499998,0.84375 0.458296,0.20833 1.166629,0.3125 2.125,0.3125 0.854127,0 1.604126,-0.14583 2.25,-0.4375 0.812458,-0.35417 1.499958,-0.80208 2.0625,-1.34375 l 3.3125,3.3125 c -0.916712,0.875 -2.125044,1.66666 -3.625,2.375 -1.083375,0.52083 -2.416707,0.78124 -4,0.78125 -1.604204,-10e-6 -2.8958688,-0.21875 -3.8749997,-0.65625 -1.125034,-0.5 -2.062533,-1.125 -2.8125,-1.875 -0.833365,-0.83334 -1.458364,-1.76042 -1.875,-2.78125 -0.416696,-1.04167 -0.625029,-2.23958 -0.625,-3.59375 -2.9e-5,-1.47916 0.21872,-2.77083 0.65625,-3.875 1.583302,-3.89582 3.124967,-6.83332 4.625,-8.8125002 1.8749627,-2.47915008 3.3228787,-5.11456 4.3437497,-7.90625 0.458294,-1.22914 0.68746,-2.62497 0.6875,-4.1874998 -4e-5,-1.68747 -0.229206,-3.09372 -0.6875,-4.21875 -0.437539,-1.0833 -1.125038,-2.10413 -2.0625,-3.0625 -0.8125358,-0.8333 -1.8229518,-1.5208 -3.0312497,-2.0625 -1.020866,-0.4583 -2.208365,-0.68746 -3.5625,-0.6875 -1.2916961,4e-5 -2.4791951,0.2292 -3.5625,0.6875 -1.041693,0.43754 -2.052108,1.12504 -3.03125,2.0625 -0.895856,0.8542 -1.583356,1.87503 -2.0625,3.0625 -0.458355,1.12503 -0.687521,2.32295 -0.6875,3.59375 -2.1e-5,1.3541898 0.229145,2.5416898 0.6875,3.5624998 0.562478,1.22919 1.36456,2.77086 2.40625,4.625 1.395808,2.43751992 2.093724,4.75002 2.09375,6.9375002 -2.6e-5,1.25001 -0.229193,2.43751 -0.6875,3.5625 -0.437525,1.08334 -1.125024,2.1041701 -2.0625,3.0625 -0.812523,0.83334 -1.822938,1.52084 -3.03125,2.0625 -1.020853,0.45834 -2.208352,0.6875 -3.5625003,0.6875 -1.291682,0 -2.479181,-0.22916 -3.5625,-0.6875 -1.041679,-0.43749 -2.052095,-1.12499 -3.03125,-2.0625 -0.895843,-0.8541599 -1.583342,-1.87499 -2.0625,-3.0625 -0.458341,-1.12499 -0.687508,-2.31249 -0.6875,-3.5625 -8e-6,-1.27082 0.229159,-2.4687302 0.6875,-3.59375028 0.437491,-1.08331 1.124991,-2.10414992 2.0625,-3.06249992 0.812489,-0.83331 1.822904,-1.52081 3.03125,-2.0625 1.020819,-0.45831 2.208318,-0.68748 3.5625,-0.6875 l 0.53125,0 c -0.70835,-1.60414 -1.062516,-3.49997 -1.0625,-5.6874998 -1.6e-5,-2.0208 0.343733,-3.8333 1.03125,-5.4375 0.749982,-1.74996 1.7812313,-3.28121 3.0937503,-4.59375 1.312478,-1.31246 2.83331,-2.33329 4.5625,-3.0625 1.624973,-0.68746 3.4062209,-1.03121 5.34375,-1.03125 2.041634,4e-5 3.822882,0.34379 5.3437499,1.03125 1.8124618,0.81254 3.3332938,1.83337 4.5624998,3.0625 1.374958,1.37504 2.406207,2.90629 3.09375,4.59375 0.687456,1.68753 1.031205,3.70836 1.03125,6.0625 -4.5e-5,2.3333598 -0.343794,4.3229398 -1.03125,5.9687498 -1.291709,3.1458499 -2.885457,6.04168 -4.78125,8.6875002 -2.14587,3.06251 -3.5625348,5.8229201 -4.2499997,8.28125 m -15.6875,-12.84375028 c -0.5416853,-0.22915 -1.1354343,-0.34373 -1.7812503,-0.34375 -0.64585,2e-5 -1.239599,0.1146 -1.78125,0.34375 -0.562515,0.25002 -1.072931,0.59377 -1.53125,1.03125003 -0.458347,0.47918005 -0.802096,0.98960005 -1.03125,1.53125005 -0.229179,0.5625202 -0.343762,1.1666802 -0.34375,1.8125002 -1.2e-5,0.62501 0.114571,1.21876 0.34375,1.78125 0.229154,0.54168 0.572903,1.05209 1.03125,1.53125 0.458319,0.43751 0.968735,0.78126 1.53125,1.03125 0.541651,0.22918 1.1354,0.34376 1.78125,0.34375 0.645816,1e-5 1.239565,-0.11457 1.7812503,-0.34375 0.562481,-0.24999 1.072897,-0.59374 1.53125,-1.03125 0.458313,-0.47916 0.802062,-0.98957 1.03125,-1.53125 0.229145,-0.56249 0.343728,-1.15624 0.34375,-1.78125 -2.2e-5,-0.64582 -0.114605,-1.24998 -0.34375,-1.8125002 -0.229188,-0.54165 -0.572937,-1.05207 -1.03125,-1.53125005 -0.458353,-0.43748003 -0.968769,-0.78123003 -1.53125,-1.03125003"
         style="font-size:64px;font-style:normal;font-variant:normal;font-weight:normal;font-stretch:normal;text-align:start;line-height:125%;writing-mode:lr-tb;text-anchor:start;fill:#000000;fill-opacity:1;stroke:none;font-family:Arev Sans;-inkscape-font-specification:Arev Sans" />
      <path
         inkscape:connector-curvature="0"
         inkscape:label="#text2461"
         id="capricorno"
         d="m -0.07341299,8.2509297 c -0.37502,-0.56249 -0.72919,-1.15623 -1.06250001,-1.78125 -1.68752,-3.16665 -2.53127,-6.65623001 -2.53124,-10.46875 l 0,-2.625 c -3e-5,-3.7082997 -0.21878,-6.5103797 -0.65626,-8.4062497 -0.66669,-2.91663 -1.4896,-4.37496 -2.46874,-4.375 -1.00003,4e-5 -2.3854405,1.86462 -4.15626,5.59375 -1.39584,2.93753 -2.09376,6.0625297 -2.09374,9.3749997 l 0,7.84375 -4.6875,0 0,-10.03125 c -2e-5,-3.6874697 -0.27085,-6.4895497 -0.8125,-8.4062497 -0.83335,-2.91663 -2.4896,-4.37496 -4.96876,-4.375 l -2.25,0 0,-5.9375 2.625,0 c 3.14583,5e-5 5.55208,1.41671 7.21876,4.25 0.91665,1.56254 1.53123,3.10421 1.84374,4.625 0.62499,-1.85413 1.45832,-3.45829 2.5,-4.8125 2.1041495,-2.70829 3.92707,-4.06245 5.46876,-4.0625 1.47914,5e-5 3.05205,1.41671 4.71874,4.25 0.89581001,1.50004 1.45831001,3.04171 1.68750001,4.625 0.41664,2.89587 0.62498,5.38545 0.625,7.4687497 l 0,3.46875 c -2e-5,2.97919 0.39580999,5.53126999215 1.18749999,7.65625 0.77081,-1.68748001 1.64581,-3.03123001 2.625,-4.03125 0.93747,-0.95831 2.18747,-1.74997 3.75,-2.375 1.24997,-0.49997 2.69788,-0.74997 4.34376,-0.75 1.39579,3e-5 2.68745,0.25003 3.875,0.75 1.20828,0.50003 2.30203,1.23961 3.28124,2.21875 0.95829,0.95836 1.69787,2.06251999215 2.21876,3.3125 0.49994,1.22919 0.74994,2.53127 0.75,3.90625 -6e-5,1.35418 -0.25006,2.64585 -0.75,3.875 -0.52089,1.2500103 -1.26047,2.3541803 -2.21876,3.3125003 -0.89588,0.89584 -1.98962,1.63543 -3.28124,2.21875 -1.10422,0.50001 -2.50005,0.75001 -4.1875,0.75 -1.70838,10e-6 -3.31254,-0.24999 -4.8125,-0.75 -1.52087,-0.49999 -2.92712,-1.27082 -4.21876,-2.3125 -0.35419,0.91668 -0.72919,1.78126 -1.125,2.59375 -0.91669,1.83334 -2.01043999,3.28125 -3.28123999,4.34375 -1.64586001,1.375 -3.17711001,2.33333 -4.59376001,2.875 -1.70835,0.66667 -3.50001,1 -5.375,1 l -1.75,0 0,-4.6875 1.75,0 c 1.3958195,0 2.58332,-0.21875 3.5625,-0.65625 1.20832,-0.52083 2.1979,-1.14583 2.96876,-1.875 0.87497,-0.79166 1.60414,-1.71874 2.1875,-2.78125 0.66663,-1.20832 1.36455001,-2.81249 2.09374001,-4.8125003 M 5.239087,7.0321797 c 1.56247,1.70835 3.07288,2.77085 4.53126,3.1875003 0.93746,0.27085 1.86454,0.40626 2.78124,0.40625 0.97913,10e-6 1.7708,-0.1354 2.375,-0.40625 0.66663,-0.2916503 1.26038,-0.6874903 1.78126,-1.1875003 0.49995,-0.49999 0.9062,-1.09374 1.21874,-1.78125 0.27079,-0.60415 0.40621,-1.30207 0.40626,-2.09375 -5e-5,-0.74998 -0.13547,-1.45831 -0.40626,-2.125 -0.25004,-0.62498 -0.65629,-1.21873 -1.21874,-1.78125 -0.52088,-0.49998001 -1.11463,-0.89581001 -1.78126,-1.18750001 -0.62504,-0.27081 -1.31254,-0.40623 -2.0625,-0.40625 -0.70837,2e-5 -1.44795,0.13544 -2.21874,0.40625 -0.85421,0.31252 -1.50004,0.70836 -1.9375,1.18750001 -1.47921,1.66669 -2.63546,3.59377 -3.46876,5.78125"
         style="font-size:64px;font-style:normal;font-variant:normal;font-weight:normal;font-stretch:normal;text-align:start;line-height:125%;writing-mode:lr-tb;text-anchor:start;fill:#000000;fill-opacity:1;stroke:none;font-family:Arev Sans;-inkscape-font-specification:Arev Sans" />
      <path
         inkscape:connector-curvature="0"
         inkscape:label="#text2465"
         id="pesci"
         d="m 4.3588401,0.20359354 -9.8125,0 c -0.25002,4.12501996 -1.1146,7.96875996 -2.59375,11.53125146 -1.35418,3.27084 -3.3125201,6.41667 -5.8750001,9.4375 l -6.46875,0 c 3.81249,-3.70833 6.47915,-7.45833 8,-11.2500005 1.24998,-3.083321 1.98957,-6.322901 2.21875,-9.71875096 l -9.28125,0 0,-4.68750004 9.28125,0 c -0.22918,-3.3958 -0.96877,-6.6353795 -2.21875,-9.7187495 -1.54168,-3.79163 -4.20834,-7.55204 -8,-11.28125 l 6.46875,0 c 2.54165,3.02088 4.4999801,6.17712 5.8750001,9.46875 1.49998,3.56253 2.36456,7.4062795 2.59375,11.5312495 l 9.8125,0 c 0.22913,-4.12497 1.09372,-7.9687195 2.59375,-11.5312495 1.37496,-3.29163 3.3332999,-6.44787 5.8749999,-9.46875 l 6.46875,0 c -3.79171,3.72921 -6.45837,7.48962 -8,11.28125 -1.25004,3.08337 -1.9896199,6.3229495 -2.2187499,9.7187495 l 8.9687499,0 0,4.68750004 -8.9687499,0 C 9.3067201,3.5994435 10.0463,6.8390235 11.29634,9.9223445 c 1.52079,3.7916705 4.18746,7.5416705 8,11.2500005 l -6.46875,0 c -2.56254,-3.02083 -4.5208699,-6.16666 -5.8749999,-9.4375 -1.4792,-3.6249915 -2.34378,-7.4687315 -2.59375,-11.53125146"
         style="font-size:64px;font-style:normal;font-variant:normal;font-weight:normal;font-stretch:normal;text-align:start;line-height:125%;writing-mode:lr-tb;text-anchor:start;fill:#000000;fill-opacity:1;stroke:none;font-family:Arev Sans;-inkscape-font-specification:Arev Sans" />
    </g>
  </g>
</svg>
